<svg width="1121" height="738" viewBox="0 0 1121 738" fill="none" xmlns="http://www.w3.org/2000/svg">
<g opacity="0.87" clip-path="url(#clip0_207_463)">
<mask id="mask0_207_463" style="mask-type:luminance" maskUnits="userSpaceOnUse" x="0" y="0" width="1482" height="738">
<path d="M1482 0H0V738H1482V0Z" fill="white"/>
</mask>
<g mask="url(#mask0_207_463)">
<path d="M741 858.07C851.43 861.562 965.924 856.014 1051.7 766.848C1145.65 669.116 1212.23 523.993 1211.29 369C1210.34 214.903 1136.72 79.8094 1046.93 -22.7462C962.528 -119.134 853.848 -177.739 741 -168.145C634.594 -159.092 551.273 -66.934 473.139 26.0013C390.661 124.089 294.856 225.037 289.288 369C283.587 517.18 356.864 651.825 445.32 747.62C526.82 835.851 634.306 854.709 741 858.07Z" fill="#1C538E"/>
<path d="M741 685.457C812.455 687.724 886.545 684.126 942.037 626.43C1002.83 563.199 1045.91 469.289 1045.3 369C1044.7 269.291 997.057 181.877 938.96 115.51C884.342 53.1492 814.019 15.2344 741 21.4283C672.149 27.2928 618.241 86.9258 567.678 147.06C514.316 210.528 452.319 275.841 448.717 369C445.032 464.874 492.436 551.998 549.678 613.99C602.412 671.079 671.963 683.283 741 685.457Z" fill="#2774C6"/>
<path d="M741 512.844C773.481 513.872 807.155 512.238 832.38 486.013C860.013 457.27 879.598 414.585 879.32 369C879.042 323.679 857.389 283.946 830.98 253.78C806.157 225.433 774.191 208.195 741 211.015C709.703 213.678 685.199 240.786 662.217 268.118C637.96 296.966 609.781 326.657 608.145 369C606.467 412.582 628.018 452.183 654.036 480.359C678.005 506.308 709.621 511.856 741 512.844Z" fill="#488FDB"/>
</g>
</g>
<defs>
<clipPath id="clip0_207_463">
<rect width="1482" height="738" fill="white"/>
</clipPath>
</defs>
</svg>
